<svg width="35" height="35" viewBox="0 0 35 35" fill="none" xmlns="http://www.w3.org/2000/svg">
<path d="M16.7345 21.1094L11.448 15.823C11.3751 15.75 11.3206 15.6713 11.2847 15.5867C11.2487 15.5021 11.2302 15.4107 11.2292 15.3125C11.2292 15.1181 11.2963 14.948 11.4305 14.8021C11.5647 14.6563 11.7406 14.5834 11.9584 14.5834H23.0417C23.2605 14.5834 23.437 14.6563 23.5711 14.8021C23.7053 14.948 23.7719 15.1181 23.7709 15.3125C23.7709 15.3612 23.698 15.5313 23.5522 15.823L18.2657 21.1094C18.1442 21.2309 18.0227 21.316 17.9011 21.3646C17.7796 21.4132 17.6459 21.4375 17.5001 21.4375C17.3542 21.4375 17.2206 21.4132 17.099 21.3646C16.9775 21.316 16.856 21.2309 16.7345 21.1094Z" fill="black"/>
</svg>
