<svg width="23" height="23" viewBox="0 0 23 23" fill="none" xmlns="http://www.w3.org/2000/svg">
<path d="M11.5 21.0833C10.302 21.0833 9.18015 20.8559 8.13428 20.401C7.08842 19.9461 6.17801 19.3312 5.40303 18.5562C4.62806 17.7812 4.01313 16.8708 3.55824 15.825C3.10335 14.7791 2.87559 13.6569 2.87495 12.4583C2.87431 11.2598 3.10208 10.1379 3.55824 9.09266C4.01441 8.04744 4.62902 7.13702 5.40208 6.36141C6.17513 5.5858 7.08555 4.97087 8.13333 4.51662C9.1811 4.06237 10.3033 3.8346 11.5 3.83333C12.6966 3.83205 13.8188 4.05981 14.8666 4.51662C15.9144 4.97342 16.8248 5.58835 17.5978 6.36141C18.3709 7.13446 18.9858 8.04488 19.4426 9.09266C19.8994 10.1404 20.1269 11.2623 20.125 12.4583C20.123 13.6543 19.8956 14.7765 19.4426 15.825C18.9896 16.8734 18.3747 17.7838 17.5978 18.5562C16.8209 19.3286 15.9105 19.9435 14.8666 20.401C13.8226 20.8584 12.7004 21.0859 11.5 21.0833ZM14.1833 16.4833L15.525 15.1417L12.4583 12.075V7.66666H10.5416V12.8417L14.1833 16.4833ZM5.36662 2.25208L6.70828 3.59374L2.63537 7.66666L1.2937 6.32499L5.36662 2.25208ZM17.6333 2.25208L21.7062 6.32499L20.3645 7.66666L16.2916 3.59374L17.6333 2.25208Z" fill="#4076FF"/>
</svg>
