<svg width="22" height="16" viewBox="0 0 22 16" fill="none" xmlns="http://www.w3.org/2000/svg">
<path d="M7.52917 12.4625L19.5354 0.45625C19.8187 0.172917 20.1493 0.03125 20.5271 0.03125C20.9049 0.03125 21.2354 0.172917 21.5187 0.45625C21.8021 0.739584 21.9437 1.07628 21.9437 1.46633C21.9437 1.85639 21.8021 2.19261 21.5187 2.475L8.52083 15.5083C8.2375 15.7917 7.90694 15.9333 7.52917 15.9333C7.15139 15.9333 6.82083 15.7917 6.5375 15.5083L0.445832 9.41667C0.162499 9.13333 0.0264986 8.79711 0.0378319 8.408C0.0491652 8.01889 0.19697 7.68219 0.481248 7.39792C0.765526 7.11364 1.10222 6.97197 1.49133 6.97292C1.88044 6.97386 2.21667 7.11553 2.5 7.39792L7.52917 12.4625Z" fill="black"/>
</svg>
