<svg width="38" height="38" viewBox="0 0 38 38" fill="none" xmlns="http://www.w3.org/2000/svg">
<path d="M4.75 33.25V26.5208L25.65 5.66042C25.9667 5.37014 26.3166 5.14583 26.6998 4.9875C27.0829 4.82917 27.4851 4.75 27.9063 4.75C28.3274 4.75 28.7364 4.82917 29.1333 4.9875C29.5302 5.14583 29.8733 5.38333 30.1625 5.7L32.3396 7.91667C32.6562 8.20694 32.8874 8.55 33.0331 8.94583C33.1788 9.34167 33.2511 9.7375 33.25 10.1333C33.25 10.5556 33.1777 10.9583 33.0331 11.3414C32.8885 11.7246 32.6573 12.074 32.3396 12.3896L11.4792 33.25H4.75ZM27.8667 12.35L30.0833 10.1333L27.8667 7.91667L25.65 10.1333L27.8667 12.35Z" fill="#505050"/>
</svg>
