<svg width="23" height="23" viewBox="0 0 23 23" fill="none" xmlns="http://www.w3.org/2000/svg">
<path d="M11.5 21.0833C10.3021 21.0833 9.18021 20.8559 8.13435 20.401C7.08848 19.9461 6.17807 19.3312 5.4031 18.5562C4.62812 17.7812 4.01319 16.8708 3.5583 15.825C3.10341 14.7791 2.87565 13.6569 2.87501 12.4583C2.87437 11.2598 3.10214 10.1379 3.5583 9.09266C4.01447 8.04744 4.62908 7.13702 5.40214 6.36141C6.17519 5.5858 7.08561 4.97087 8.13339 4.51662C9.18117 4.06237 10.3034 3.8346 11.5 3.83333C12.6967 3.83205 13.8189 4.05981 14.8666 4.51662C15.9144 4.97342 16.8248 5.58835 17.5979 6.36141C18.3709 7.13446 18.9859 8.04488 19.4427 9.09266C19.8995 10.1404 20.1269 11.2623 20.125 12.4583C20.1231 13.6543 19.8957 14.7765 19.4427 15.825C18.9897 16.8734 18.3748 17.7838 17.5979 18.5562C16.821 19.3286 15.9106 19.9435 14.8666 20.401C13.8227 20.8584 12.7005 21.0859 11.5 21.0833ZM14.1833 16.4833L15.525 15.1417L12.4583 12.075V7.66666H10.5417V12.8417L14.1833 16.4833ZM5.36668 2.25208L6.70835 3.59374L2.63543 7.66666L1.29376 6.32499L5.36668 2.25208ZM17.6333 2.25208L21.7063 6.32499L20.3646 7.66666L16.2917 3.59374L17.6333 2.25208Z" fill="#08C81F"/>
</svg>
