<svg width="21" height="21" viewBox="0 0 21 21" fill="none" xmlns="http://www.w3.org/2000/svg">
<path d="M14.7708 18.125H15.7292V15.7292H18.125V14.7708H15.7292V12.375H14.7708V14.7708H12.375V15.7292H14.7708V18.125ZM15.25 20.0417C13.9243 20.0417 12.7944 19.5743 11.8604 18.6396C10.9263 17.7049 10.459 16.5751 10.4583 15.25C10.4577 13.9249 10.925 12.7951 11.8604 11.8604C12.7957 10.9257 13.9256 10.4583 15.25 10.4583C16.5744 10.4583 17.7046 10.9257 18.6406 11.8604C19.5766 12.7951 20.0436 13.9249 20.0417 15.25C20.0397 16.5751 19.5724 17.7052 18.6396 18.6406C17.7068 19.5759 16.577 20.0429 15.25 20.0417ZM4.70833 6.625H14.2917V4.70833H4.70833V6.625ZM9.18854 18.125H2.79167C2.26458 18.125 1.81353 17.9375 1.4385 17.5625C1.06347 17.1874 0.875639 16.7361 0.875 16.2083V2.79167C0.875 2.26458 1.06283 1.81353 1.4385 1.4385C1.81417 1.06347 2.26522 0.875639 2.79167 0.875H16.2083C16.7354 0.875 17.1868 1.06283 17.5625 1.4385C17.9381 1.81417 18.1256 2.26522 18.125 2.79167V9.2125C17.6618 8.98889 17.1945 8.82118 16.723 8.70937C16.2515 8.59757 15.7605 8.54167 15.25 8.54167C15.0743 8.54167 14.9104 8.5455 14.7584 8.55317C14.6063 8.56083 14.4507 8.58096 14.2917 8.61354V8.54167H4.70833V10.4583H10.5781C10.2906 10.7299 10.0312 11.0253 9.79996 11.3448C9.56868 11.6642 9.36487 12.0076 9.18854 12.375H4.70833V14.2917H8.61354C8.5816 14.4514 8.56179 14.6073 8.55412 14.7593C8.54646 14.9114 8.54231 15.0749 8.54167 15.25C8.54167 15.7771 8.58958 16.2684 8.68542 16.7239C8.78125 17.1794 8.94896 17.6465 9.18854 18.125Z" fill="#4076FF"/>
</svg>
