<svg width="26" height="30" viewBox="0 0 26 30" fill="none" xmlns="http://www.w3.org/2000/svg">
<path d="M3.08333 29.1667C2.30417 29.1667 1.63739 28.8895 1.083 28.3351C0.528611 27.7807 0.250944 27.1135 0.25 26.3333V6.50001C0.25 5.72084 0.527667 5.05407 1.083 4.49968C1.63833 3.94529 2.30511 3.66762 3.08333 3.66668H4.5V0.833344H7.33333V3.66668H18.6667V0.833344H21.5V3.66668H22.9167C23.6958 3.66668 24.3631 3.94434 24.9184 4.49968C25.4737 5.05501 25.7509 5.72179 25.75 6.50001V26.3333C25.75 27.1125 25.4728 27.7798 24.9184 28.3351C24.364 28.8904 23.6968 29.1676 22.9167 29.1667H3.08333ZM3.08333 26.3333H22.9167V12.1667H3.08333V26.3333ZM3.08333 9.33334H22.9167V6.50001H3.08333V9.33334ZM13 17.8333C12.5986 17.8333 12.2624 17.6973 11.9913 17.4253C11.7203 17.1533 11.5843 16.8171 11.5833 16.4167C11.5824 16.0162 11.7184 15.68 11.9913 15.408C12.2643 15.136 12.6005 15 13 15C13.3995 15 13.7362 15.136 14.0101 15.408C14.284 15.68 14.4195 16.0162 14.4167 16.4167C14.4138 16.8171 14.2778 17.1538 14.0087 17.4268C13.7395 17.6997 13.4033 17.8352 13 17.8333ZM7.33333 17.8333C6.93194 17.8333 6.59572 17.6973 6.32467 17.4253C6.05361 17.1533 5.91761 16.8171 5.91667 16.4167C5.91572 16.0162 6.05172 15.68 6.32467 15.408C6.59761 15.136 6.93383 15 7.33333 15C7.73283 15 8.06953 15.136 8.34342 15.408C8.61731 15.68 8.75283 16.0162 8.75 16.4167C8.74717 16.8171 8.61117 17.1538 8.342 17.4268C8.07283 17.6997 7.73661 17.8352 7.33333 17.8333ZM18.6667 17.8333C18.2653 17.8333 17.9291 17.6973 17.658 17.4253C17.3869 17.1533 17.2509 16.8171 17.25 16.4167C17.2491 16.0162 17.3851 15.68 17.658 15.408C17.9309 15.136 18.2672 15 18.6667 15C19.0662 15 19.4029 15.136 19.6767 15.408C19.9506 15.68 20.0862 16.0162 20.0833 16.4167C20.0805 16.8171 19.9445 17.1538 19.6753 17.4268C19.4062 17.6997 19.0699 17.8352 18.6667 17.8333ZM13 23.5C12.5986 23.5 12.2624 23.364 11.9913 23.092C11.7203 22.82 11.5843 22.4838 11.5833 22.0833C11.5824 21.6829 11.7184 21.3467 11.9913 21.0747C12.2643 20.8027 12.6005 20.6667 13 20.6667C13.3995 20.6667 13.7362 20.8027 14.0101 21.0747C14.284 21.3467 14.4195 21.6829 14.4167 22.0833C14.4138 22.4838 14.2778 22.8205 14.0087 23.0934C13.7395 23.3664 13.4033 23.5019 13 23.5ZM7.33333 23.5C6.93194 23.5 6.59572 23.364 6.32467 23.092C6.05361 22.82 5.91761 22.4838 5.91667 22.0833C5.91572 21.6829 6.05172 21.3467 6.32467 21.0747C6.59761 20.8027 6.93383 20.6667 7.33333 20.6667C7.73283 20.6667 8.06953 20.8027 8.34342 21.0747C8.61731 21.3467 8.75283 21.6829 8.75 22.0833C8.74717 22.4838 8.61117 22.8205 8.342 23.0934C8.07283 23.3664 7.73661 23.5019 7.33333 23.5ZM18.6667 23.5C18.2653 23.5 17.9291 23.364 17.658 23.092C17.3869 22.82 17.2509 22.4838 17.25 22.0833C17.2491 21.6829 17.3851 21.3467 17.658 21.0747C17.9309 20.8027 18.2672 20.6667 18.6667 20.6667C19.0662 20.6667 19.4029 20.8027 19.6767 21.0747C19.9506 21.3467 20.0862 21.6829 20.0833 22.0833C20.0805 22.4838 19.9445 22.8205 19.6753 23.0934C19.4062 23.3664 19.0699 23.5019 18.6667 23.5Z" fill="black"/>
</svg>
