<svg width="26" height="30" viewBox="0 0 26 30" fill="none" xmlns="http://www.w3.org/2000/svg">
<path d="M8.75 21.375C7.75833 21.375 6.92014 21.0326 6.23542 20.3479C5.55069 19.6632 5.20833 18.825 5.20833 17.8333C5.20833 16.8417 5.55069 16.0035 6.23542 15.3188C6.92014 14.634 7.75833 14.2917 8.75 14.2917C9.74167 14.2917 10.5799 14.634 11.2646 15.3188C11.9493 16.0035 12.2917 16.8417 12.2917 17.8333C12.2917 18.825 11.9493 19.6632 11.2646 20.3479C10.5799 21.0326 9.74167 21.375 8.75 21.375ZM3.08333 29.1667C2.30417 29.1667 1.63739 28.8895 1.083 28.3351C0.528611 27.7807 0.250944 27.1135 0.25 26.3333V6.50001C0.25 5.72084 0.527667 5.05407 1.083 4.49968C1.63833 3.94529 2.30511 3.66762 3.08333 3.66668H4.5V0.833344H7.33333V3.66668H18.6667V0.833344H21.5V3.66668H22.9167C23.6958 3.66668 24.3631 3.94434 24.9184 4.49968C25.4737 5.05501 25.7509 5.72179 25.75 6.50001V26.3333C25.75 27.1125 25.4728 27.7798 24.9184 28.3351C24.364 28.8904 23.6968 29.1676 22.9167 29.1667H3.08333ZM3.08333 26.3333H22.9167V12.1667H3.08333V26.3333ZM3.08333 9.33334H22.9167V6.50001H3.08333V9.33334Z" fill="black"/>
</svg>
