<svg width="278" height="134" viewBox="0 0 278 134" fill="none" xmlns="http://www.w3.org/2000/svg">
<path d="M21.87 89H20.79C18.39 89 16.38 88.82 14.76 88.46C13.2 88.1 11.82 87.38 10.62 86.3C9.48 85.16 8.58 83.9 7.92 82.52C7.32 81.14 6.84 79.07 6.48 76.31C5.94 72.17 5.67 66.62 5.67 59.66C5.67 52.64 5.7 47.69 5.76 44.81C5.88 41.93 6.12 39.14 6.48 36.44C6.84 33.68 7.32 31.64 7.92 30.32C8.58 28.94 9.48 27.71 10.62 26.63C11.82 25.49 13.2 24.77 14.76 24.47C16.38 24.11 18.39 23.93 20.79 23.93H21.87V89ZM25.47 23.93H36.9C41.28 23.93 44.58 24.68 46.8 26.18C49.08 27.68 50.22 30.29 50.22 34.01V42.11C50.22 43.37 49.8 44 48.96 44H37.62C36.78 44 36.27 43.88 36.09 43.64C35.91 43.4 35.82 42.89 35.82 42.11V35.09C35.82 34.13 35.67 33.47 35.37 33.11C35.13 32.69 34.47 32.48 33.39 32.48H25.47V23.93ZM37.62 68.93H48.96C49.8 68.93 50.22 69.56 50.22 70.82V78.92C50.22 82.64 49.08 85.25 46.8 86.75C44.58 88.25 41.28 89 36.9 89H25.47V80.45H33.39C34.47 80.45 35.13 80.27 35.37 79.91C35.67 79.49 35.82 78.8 35.82 77.84V70.82C35.82 70.04 35.91 69.53 36.09 69.29C36.27 69.05 36.78 68.93 37.62 68.93ZM75.8138 44H88.4138C94.9538 44 98.2238 47.21 98.2238 53.63V89H87.9638C87.0038 89 86.2238 88.67 85.6238 88.01C85.0238 87.35 84.7238 86.48 84.7238 85.4V53.45C84.7238 52.49 84.4838 51.8 84.0038 51.38C83.5838 50.96 82.5938 50.75 81.0338 50.75H75.8138V44ZM60.0638 23.93H65.5538C68.1938 23.93 70.1738 24.59 71.4938 25.91C72.8738 27.17 73.5638 28.82 73.5638 30.86V89H63.3038C62.3438 89 61.5638 88.67 60.9638 88.01C60.3638 87.35 60.0638 86.48 60.0638 85.4V23.93ZM108.491 44.09H113.981C116.621 44.09 118.601 44.75 119.921 46.07C121.301 47.33 121.991 48.98 121.991 51.02V89H111.731C110.771 89 109.991 88.67 109.391 88.01C108.791 87.35 108.491 86.48 108.491 85.4V44.09ZM109.121 24.92C109.781 24.26 111.701 23.93 114.881 23.93C118.061 23.93 119.981 24.26 120.641 24.92C121.301 25.52 121.631 27.32 121.631 30.32C121.631 33.32 121.271 35.15 120.551 35.81C119.891 36.47 118.001 36.8 114.881 36.8C111.761 36.8 109.841 36.47 109.121 35.81C108.461 35.15 108.131 33.32 108.131 30.32C108.131 27.32 108.461 25.52 109.121 24.92ZM151.48 88.37C151.48 88.79 151.33 89 151.03 89H141.94C138.58 89 136.09 88.22 134.47 86.66C132.91 85.1 132.13 82.55 132.13 79.01V24.02H137.62C140.26 24.02 142.24 24.68 143.56 26C144.94 27.26 145.63 28.91 145.63 30.95V78.83C145.63 80.69 146.02 81.74 146.8 81.98C147.22 82.16 147.79 82.25 148.51 82.25H150.76C151.24 82.25 151.48 82.46 151.48 82.88V88.37ZM176.88 88.37C176.88 88.79 176.73 89 176.43 89H167.34C163.98 89 161.49 88.22 159.87 86.66C158.31 85.1 157.53 82.55 157.53 79.01V24.02H163.02C165.66 24.02 167.64 24.68 168.96 26C170.34 27.26 171.03 28.91 171.03 30.95V78.83C171.03 80.69 171.42 81.74 172.2 81.98C172.62 82.16 173.19 82.25 173.91 82.25H176.16C176.64 82.25 176.88 82.46 176.88 82.88V88.37ZM273.239 44V57.32C273.239 60.26 272.489 62.45 270.989 63.89C269.549 65.27 267.029 65.96 263.429 65.96H256.589V59.21H258.029C258.989 59.21 259.529 58.82 259.649 58.04C259.709 57.68 259.739 57.17 259.739 56.51V47.69C259.739 45.23 260.819 44 262.979 44H273.239ZM253.889 74.51H252.449C251.489 74.51 250.949 74.9 250.829 75.68C250.769 76.04 250.739 76.55 250.739 77.21V85.31C250.739 87.77 249.659 89 247.499 89H237.239V76.4C237.239 73.46 237.959 71.3 239.399 69.92C240.899 68.48 243.449 67.76 247.049 67.76H253.889V74.51ZM256.589 67.76H263.429C267.029 67.76 269.549 68.48 270.989 69.92C272.489 71.3 273.239 73.46 273.239 76.4V89H262.979C260.819 89 259.739 87.77 259.739 85.31V77.21C259.739 76.01 259.589 75.26 259.289 74.96C258.989 74.66 258.569 74.51 258.029 74.51H256.589V67.76ZM237.239 44H247.499C249.659 44 250.739 45.23 250.739 47.69V56.51C250.739 57.71 250.889 58.46 251.189 58.76C251.489 59.06 251.909 59.21 252.449 59.21H253.889V65.96H247.049C243.449 65.96 240.899 65.27 239.399 63.89C237.959 62.45 237.239 60.26 237.239 57.32V44Z" fill="white"/>
<path d="M100.988 100.531H107.932C112.561 100.531 115.543 101.902 116.879 104.645C117.359 105.652 117.6 106.789 117.6 108.055C117.6 109.309 117.43 110.369 117.09 111.236C116.762 112.104 116.299 112.848 115.701 113.469C114.553 114.664 112.971 115.449 110.955 115.824C111.787 118.391 113.199 120.16 115.191 121.133C115.848 121.461 116.398 121.637 116.844 121.66C117.594 121.684 118.121 121.66 118.426 121.59V125H117.635C114.998 125 112.754 124.062 110.902 122.188C109.273 120.559 108.178 118.508 107.615 116.035H104.504V125H100.988V100.531ZM107.703 113.223C109.824 113.223 111.395 112.812 112.414 111.992C113.434 111.172 113.943 109.895 113.943 108.16C113.943 105.852 112.871 104.363 110.727 103.695C109.977 103.461 109.068 103.344 108.002 103.344H104.504V113.223H107.703ZM129.501 125.281C122.868 125.281 119.551 122.041 119.551 115.561C119.551 112.771 120.471 110.539 122.311 108.863C123.964 107.34 125.85 106.578 127.971 106.578C130.28 106.578 132.085 107.352 133.385 108.898C134.593 110.34 135.196 112.268 135.196 114.682V116.053H123.208C123.208 119.369 124.561 121.396 127.268 122.135C127.913 122.311 128.903 122.398 130.239 122.398C131.587 122.398 132.905 122.217 134.194 121.854V124.824C132.905 125.129 131.341 125.281 129.501 125.281ZM131.68 113.469C131.68 112.344 131.37 111.395 130.749 110.621C130.022 109.73 129.02 109.285 127.743 109.285C126.395 109.285 125.3 109.713 124.456 110.568C123.682 111.365 123.296 112.332 123.296 113.469H131.68ZM142.79 125.281C141.326 125.281 139.843 125.176 138.343 124.965V121.854C139.867 122.217 141.414 122.398 142.984 122.398C146.124 122.398 147.695 121.736 147.695 120.412C147.695 119.908 147.572 119.533 147.326 119.287C146.962 118.9 146.388 118.514 145.603 118.127L143.037 116.949C141.373 116.117 140.294 115.449 139.802 114.945C138.876 114.008 138.414 112.895 138.414 111.605C138.414 110.152 139.087 108.969 140.435 108.055C141.888 107.07 143.927 106.578 146.552 106.578C147.876 106.578 149.212 106.672 150.56 106.859V109.865C149.083 109.596 147.794 109.461 146.693 109.461C145.603 109.461 144.753 109.531 144.144 109.672C143.546 109.812 143.095 109.988 142.79 110.199C142.31 110.527 142.07 110.955 142.07 111.482C142.07 111.998 142.234 112.42 142.562 112.748C142.902 113.064 143.429 113.41 144.144 113.785L146.728 115.033C148.415 115.912 149.499 116.586 149.98 117.055C150.894 117.945 151.351 119.064 151.351 120.412C151.351 121.854 150.624 123.014 149.171 123.893C147.648 124.818 145.521 125.281 142.79 125.281ZM162.145 122.223C162.531 122.363 163.117 122.434 163.903 122.434C164.688 122.434 165.344 122.34 165.871 122.152V124.965C165.625 125.023 165.268 125.059 164.799 125.07L163.692 125.105C163.445 125.105 163.258 125.105 163.129 125.105C160.867 125.105 159.197 124.367 158.119 122.891C157.252 121.695 156.819 120.113 156.819 118.145V109.549H154.217V107.896L156.819 106.859L157.662 102.359H160.334V106.859H165.959V109.549H160.334V118.127C160.334 120.424 160.938 121.789 162.145 122.223ZM170.724 121.766C170.337 121.098 170.026 120.312 169.792 119.41C169.569 118.508 169.458 117.33 169.458 115.877C169.458 114.424 169.768 113.088 170.39 111.869C171.022 110.639 171.843 109.631 172.85 108.846C174.808 107.334 177.239 106.578 180.145 106.578C181.657 106.578 182.8 106.613 183.573 106.684C183.573 106.684 184.141 106.742 185.278 106.859V125H182.114L181.974 122.908C181.27 123.846 180.198 124.543 178.757 125C178.206 125.176 177.638 125.264 177.052 125.264C176.477 125.264 175.909 125.205 175.347 125.088C174.784 124.971 174.222 124.777 173.659 124.508C173.108 124.238 172.581 123.881 172.077 123.436C171.573 122.979 171.122 122.422 170.724 121.766ZM181.763 109.443C181.013 109.35 180.263 109.303 179.513 109.303C178.774 109.303 177.983 109.438 177.14 109.707C176.296 109.965 175.575 110.375 174.977 110.938C173.735 112.109 173.114 113.896 173.114 116.299C173.114 118.572 173.647 120.254 174.714 121.344C175.522 122.152 176.495 122.557 177.632 122.557C179.097 122.557 180.304 122.023 181.253 120.957C181.487 120.688 181.657 120.447 181.763 120.236V109.443ZM202.013 120.553V106.859H205.529V125H202.365L202.048 123.084C200.314 124.549 198.398 125.281 196.3 125.281C194.074 125.281 192.498 124.666 191.572 123.436C190.611 122.182 190.13 120.02 190.13 116.949V106.859H193.646V116.773C193.646 118.941 193.957 120.418 194.578 121.203C195.129 121.906 196.177 122.258 197.724 122.258C199.283 122.258 200.713 121.689 202.013 120.553ZM222.018 110.076C221.373 109.889 220.6 109.795 219.698 109.795C218.807 109.795 218.075 109.889 217.5 110.076C216.926 110.252 216.422 110.469 215.989 110.727C215.192 111.195 214.612 111.723 214.248 112.309V125H210.733V106.859H214.108L214.248 109.373C215.127 108.271 216.41 107.445 218.098 106.895C218.707 106.684 219.405 106.578 220.19 106.578C220.975 106.578 221.584 106.637 222.018 106.754V110.076ZM225.587 121.766C225.2 121.098 224.89 120.312 224.655 119.41C224.433 118.508 224.321 117.33 224.321 115.877C224.321 114.424 224.632 113.088 225.253 111.869C225.886 110.639 226.706 109.631 227.714 108.846C229.671 107.334 232.103 106.578 235.009 106.578C236.521 106.578 237.663 106.613 238.437 106.684C238.437 106.684 239.005 106.742 240.142 106.859V125H236.978L236.837 122.908C236.134 123.846 235.062 124.543 233.62 125C233.069 125.176 232.501 125.264 231.915 125.264C231.341 125.264 230.772 125.205 230.21 125.088C229.647 124.971 229.085 124.777 228.522 124.508C227.972 124.238 227.444 123.881 226.94 123.436C226.437 122.979 225.985 122.422 225.587 121.766ZM236.626 109.443C235.876 109.35 235.126 109.303 234.376 109.303C233.638 109.303 232.847 109.438 232.003 109.707C231.159 109.965 230.439 110.375 229.841 110.938C228.599 112.109 227.978 113.896 227.978 116.299C227.978 118.572 228.511 120.254 229.577 121.344C230.386 122.152 231.358 122.557 232.495 122.557C233.96 122.557 235.167 122.023 236.116 120.957C236.351 120.688 236.521 120.447 236.626 120.236V109.443ZM253.22 109.602C251.474 109.602 249.922 110.193 248.562 111.377V125H245.047V106.859H248.299L248.545 108.828C250.455 107.328 252.429 106.578 254.469 106.578C256.625 106.578 258.207 107.223 259.215 108.512C260.269 109.871 260.797 112.062 260.797 115.086V125H257.281V115.086C257.281 112.18 256.496 110.445 254.926 109.883C254.422 109.695 253.853 109.602 253.22 109.602ZM271.872 122.223C272.258 122.363 272.844 122.434 273.629 122.434C274.415 122.434 275.071 122.34 275.598 122.152V124.965C275.352 125.023 274.995 125.059 274.526 125.07L273.418 125.105C273.172 125.105 272.985 125.105 272.856 125.105C270.594 125.105 268.924 124.367 267.846 122.891C266.979 121.695 266.545 120.113 266.545 118.145V109.549H263.944V107.896L266.545 106.859L267.389 102.359H270.061V106.859H275.686V109.549H270.061V118.127C270.061 120.424 270.665 121.789 271.872 122.223Z" fill="white"/>
<path d="M202.906 46.3569C204.368 43.3646 208.632 43.3646 210.094 46.3569L227.504 81.9942C228.802 84.6515 226.867 87.75 223.91 87.75H189.09C186.133 87.75 184.198 84.6515 185.496 81.9942L202.906 46.3569Z" fill="white"/>
</svg>
